HIERARCHY
ROOT Hips
{
  OFFSET 0.864854 99.1353 2.13189
  CHANNELS 6 Xposition Yposition Zposition Zrotation Xrotation Yrotation
  JOINT Spine
  {
    OFFSET 0 10.1816 0.1315
    CHANNELS 6 Xposition Yposition Zposition Zrotation Xrotation Yrotation
    JOINT Spine1
    {
      OFFSET 0 10.0835 -1.0008
      CHANNELS 6 Xposition Yposition Zposition Zrotation Xrotation Yrotation
      JOINT Spine2
      {
        OFFSET 0 9.1 -1.3734
        CHANNELS 6 Xposition Yposition Zposition Zrotation Xrotation Yrotation
        JOINT Neck
        {
          OFFSET 0 16.6717 -2.5162
          CHANNELS 6 Xposition Yposition Zposition Zrotation Xrotation Yrotation
          JOINT Head
          {
            OFFSET 0 9.6179 1.685
            CHANNELS 6 Xposition Yposition Zposition Zrotation Xrotation Yrotation
            JOINT HeadTop_End
            {
              OFFSET 0 17.8152 2.585
              CHANNELS 6 Xposition Yposition Zposition Zrotation Xrotation Yrotation
              End Site
              {
                OFFSET 0 0 0
              }
            }
            JOINT LeftEye
            {
              OFFSET 3.0676 6.4095 9.2836
              CHANNELS 6 Xposition Yposition Zposition Zrotation Xrotation Yrotation
              End Site
              {
                OFFSET 0 0 0
              }
            }
            JOINT RightEye
            {
              OFFSET -3.0676 6.4095 9.2835
              CHANNELS 6 Xposition Yposition Zposition Zrotation Xrotation Yrotation
              End Site
              {
                OFFSET 0 0 0
              }
            }
          }
        }
        JOINT LeftShoulder
        {
          OFFSET 4.5704 10.946 -2.628
          CHANNELS 6 Xposition Yposition Zposition Zrotation Xrotation Yrotation
          JOINT LeftArm
          {
            OFFSET 10.5924 -0.5246 -2.2321
            CHANNELS 6 Xposition Yposition Zposition Zrotation Xrotation Yrotation
            JOINT LeftForeArm
            {
              OFFSET 27.8415 -0.0001 0
              CHANNELS 6 Xposition Yposition Zposition Zrotation Xrotation Yrotation
              JOINT LeftHand
              {
                OFFSET 28.3288 0 0
                CHANNELS 6 Xposition Yposition Zposition Zrotation Xrotation Yrotation
                JOINT LeftHandThumb1
                {
                  OFFSET 2.4661 -1.575 2.6824
                  CHANNELS 6 Xposition Yposition Zposition Zrotation Xrotation Yrotation
                  JOINT LeftHandThumb2
                  {
                    OFFSET 3.2298 -1.8647 1.8647
                    CHANNELS 6 Xposition Yposition Zposition Zrotation Xrotation Yrotation
                    JOINT LeftHandThumb3
                    {
                      OFFSET 2.6526 -1.5315 1.5315
                      CHANNELS 6 Xposition Yposition Zposition Zrotation Xrotation Yrotation
                      End Site
                      {
                        OFFSET 1.9546 -1.1285 1.1285
                      }
                    }
                  }
                }
                JOINT LeftHandIndex1
                {
                  OFFSET 9.1093 -0.5171 2.2601
                  CHANNELS 6 Xposition Yposition Zposition Zrotation Xrotation Yrotation
                  JOINT LeftHandIndex2
                  {
                    OFFSET 3.6764 0 0
                    CHANNELS 6 Xposition Yposition Zposition Zrotation Xrotation Yrotation
                    JOINT LeftHandIndex3
                    {
                      OFFSET 2.8831 0 0
                      CHANNELS 6 Xposition Yposition Zposition Zrotation Xrotation Yrotation
                      End Site
                      {
                        OFFSET 2.3927 0 0
                      }
                    }
                  }
                }
                JOINT LeftHandMiddle1
                {
                  OFFSET 9.5334 0 0
                  CHANNELS 6 Xposition Yposition Zposition Zrotation Xrotation Yrotation
                  JOINT LeftHandMiddle2
                  {
                    OFFSET 3.6982 0 0
                    CHANNELS 6 Xposition Yposition Zposition Zrotation Xrotation Yrotation
                    JOINT LeftHandMiddle3
                    {
                      OFFSET 2.9509 0 0
                      CHANNELS 6 Xposition Yposition Zposition Zrotation Xrotation Yrotation
                      End Site
                      {
                        OFFSET 2.8339 0 0
                      }
                    }
                  }
                }
                JOINT LeftHandRing1
                {
                  OFFSET 9.1045 -0.0439 -1.8651
                  CHANNELS 6 Xposition Yposition Zposition Zrotation Xrotation Yrotation
                  JOINT LeftHandRing2
                  {
                    OFFSET 3.154 0 0
                    CHANNELS 6 Xposition Yposition Zposition Zrotation Xrotation Yrotation
                    JOINT LeftHandRing3
                    {
                      OFFSET 2.9377 0 0
                      CHANNELS 6 Xposition Yposition Zposition Zrotation Xrotation Yrotation
                      End Site
                      {
                        OFFSET 2.6475 0 0
                      }
                    }
                  }
                }
                JOINT LeftHandPinky1
                {
                  OFFSET 8.0778 -0.4887 -3.8061
                  CHANNELS 6 Xposition Yposition Zposition Zrotation Xrotation Yrotation
                  JOINT LeftHandPinky2
                  {
                    OFFSET 3.6 0 0
                    CHANNELS 6 Xposition Yposition Zposition Zrotation Xrotation Yrotation
                    JOINT LeftHandPinky3
                    {
                      OFFSET 2.1142 0 0
                      CHANNELS 6 Xposition Yposition Zposition Zrotation Xrotation Yrotation
                      End Site
                      {
                        OFFSET 1.9757 0 0
                      }
                    }
                  }
                }
              }
            }
          }
        }
        JOINT RightShoulder
        {
          OFFSET -4.57 10.9462 -2.628
          CHANNELS 6 Xposition Yposition Zposition Zrotation Xrotation Yrotation
          JOINT RightArm
          {
            OFFSET -10.5928 -0.5248 -2.2321
            CHANNELS 6 Xposition Yposition Zposition Zrotation Xrotation Yrotation
            JOINT RightForeArm
            {
              OFFSET -27.8415 0 0
              CHANNELS 6 Xposition Yposition Zposition Zrotation Xrotation Yrotation
              JOINT RightHand
              {
                OFFSET -28.3288 0 0.0001
                CHANNELS 6 Xposition Yposition Zposition Zrotation Xrotation Yrotation
                JOINT RightHandPinky1
                {
                  OFFSET -8.0767 -0.4885 -3.806
                  CHANNELS 6 Xposition Yposition Zposition Zrotation Xrotation Yrotation
                  JOINT RightHandPinky2
                  {
                    OFFSET -3.6 0 0.0001
                    CHANNELS 6 Xposition Yposition Zposition Zrotation Xrotation Yrotation
                    JOINT RightHandPinky3
                    {
                      OFFSET -2.1142 0 0
                      CHANNELS 6 Xposition Yposition Zposition Zrotation Xrotation Yrotation
                      End Site
                      {
                        OFFSET -1.9757 0 0
                      }
                    }
                  }
                }
                JOINT RightHandRing1
                {
                  OFFSET -9.1036 -0.0439 -1.8651
                  CHANNELS 6 Xposition Yposition Zposition Zrotation Xrotation Yrotation
                  JOINT RightHandRing2
                  {
                    OFFSET -3.154 0 0
                    CHANNELS 6 Xposition Yposition Zposition Zrotation Xrotation Yrotation
                    JOINT RightHandRing3
                    {
                      OFFSET -2.9377 0 0
                      CHANNELS 6 Xposition Yposition Zposition Zrotation Xrotation Yrotation
                      End Site
                      {
                        OFFSET -2.6475 0 0
                      }
                    }
                  }
                }
                JOINT RightHandMiddle1
                {
                  OFFSET -9.5325 0 0
                  CHANNELS 6 Xposition Yposition Zposition Zrotation Xrotation Yrotation
                  JOINT RightHandMiddle2
                  {
                    OFFSET -3.6982 0 0
                    CHANNELS 6 Xposition Yposition Zposition Zrotation Xrotation Yrotation
                    JOINT RightHandMiddle3
                    {
                      OFFSET -2.9509 0 0
                      CHANNELS 6 Xposition Yposition Zposition Zrotation Xrotation Yrotation
                      End Site
                      {
                        OFFSET -2.8339 0 0.0001
                      }
                    }
                  }
                }
                JOINT RightHandIndex1
                {
                  OFFSET -9.1083 -0.5168 2.2601
                  CHANNELS 6 Xposition Yposition Zposition Zrotation Xrotation Yrotation
                  JOINT RightHandIndex2
                  {
                    OFFSET -3.6764 0 0
                    CHANNELS 6 Xposition Yposition Zposition Zrotation Xrotation Yrotation
                    JOINT RightHandIndex3
                    {
                      OFFSET -2.8831 0 0
                      CHANNELS 6 Xposition Yposition Zposition Zrotation Xrotation Yrotation
                      End Site
                      {
                        OFFSET -2.3927 0 0
                      }
                    }
                  }
                }
                JOINT RightHandThumb1
                {
                  OFFSET -2.4648 -1.5727 2.6826
                  CHANNELS 6 Xposition Yposition Zposition Zrotation Xrotation Yrotation
                  JOINT RightHandThumb2
                  {
                    OFFSET -3.2298 -1.8647 1.8647
                    CHANNELS 6 Xposition Yposition Zposition Zrotation Xrotation Yrotation
                    JOINT RightHandThumb3
                    {
                      OFFSET -2.6526 -1.5314 1.5314
                      CHANNELS 6 Xposition Yposition Zposition Zrotation Xrotation Yrotation
                      End Site
                      {
                        OFFSET -1.9546 -1.1285 1.1285
                      }
                    }
                  }
                }
              }
            }
          }
        }
      }
    }
  }
  JOINT LeftUpLeg
  {
    OFFSET 8.2078 -6.7517 -1.5996
    CHANNELS 6 Xposition Yposition Zposition Zrotation Xrotation Yrotation
    JOINT LeftLeg
    {
      OFFSET 0 -44.3705 0.2846
      CHANNELS 6 Xposition Yposition Zposition Zrotation Xrotation Yrotation
      JOINT LeftFoot
      {
        OFFSET 0 -44.4279 -2.9822
        CHANNELS 6 Xposition Yposition Zposition Zrotation Xrotation Yrotation
        JOINT LeftToeBase
        {
          OFFSET 0 -8.7287 10.7106
          CHANNELS 6 Xposition Yposition Zposition Zrotation Xrotation Yrotation
          End Site
          {
            OFFSET 0 -0.0007 9.2781
          }
        }
      }
    }
  }
  JOINT RightUpLeg
  {
    OFFSET -8.2078 -6.7517 -1.5996
    CHANNELS 6 Xposition Yposition Zposition Zrotation Xrotation Yrotation
    JOINT RightLeg
    {
      OFFSET 0 -44.3705 0.2862
      CHANNELS 6 Xposition Yposition Zposition Zrotation Xrotation Yrotation
      JOINT RightFoot
      {
        OFFSET 0 -44.4277 -2.9838
        CHANNELS 6 Xposition Yposition Zposition Zrotation Xrotation Yrotation
        JOINT RightToeBase
        {
          OFFSET 0 -8.7287 10.7106
          CHANNELS 6 Xposition Yposition Zposition Zrotation Xrotation Yrotation
          End Site
          {
            OFFSET 0 -0.0007 9.2781
          }
        }
      }
    }
  }
}
MOTION
Frames:	4
Frame Time:	0.0333333
1.34471 98.5611 1.78494 2.7531 -4.66047 12.1474 0 10.1816 0.1315 -0.0895695 3.72702 -0.141706 0 10.0835 -1.0008 -0.00479596 4.87225 -0.376481 0 9.1 -1.3734 -0.012481 4.87137 -0.389451 0 16.6717 -2.5162 -5.76145 5.10875 10.6578 0 9.6179 1.685 -16.938 -4.7399 52.9896 1.77636e-015 17.8152 2.585 1.39149e-015 3.8266e-015 -0 3.0676 6.4095 9.2836 1.39149e-015 3.8266e-015 -0 -3.0676 6.4095 9.2835 1.39149e-015 3.8266e-015 -0 4.5704 10.946 -2.628 -11.2092 4.49 -5.04275 10.5924 -0.5246 -2.2321 -50.5723 -12.8756 -8.38128 27.8415 -0.0001 -1.77636e-015 -0.000203123 2.3363e-006 -30.9146 28.3288 0 7.10543e-015 7.8772 -22.1632 42.6784 2.4661 -1.575 2.6824 -6.86327 19.2213 19.5851 3.2298 -1.8647 1.8647 1.13509 6.07959 22.7253 2.6526 -1.5315 1.5315 3.94461 3.67075 22.0898 9.1093 -0.5171 2.2601 -23.182 -0.554845 3.96511 3.6764 -7.10543e-015 -3.55271e-015 -25.1964 -0.655816 2.93376 2.8831 -3.55271e-015 0 -6.68167 -0.0467895 0.801505 9.5334 1.42109e-014 0 -54.4853 -2.86625 10.5699 3.6982 3.55271e-015 3.55271e-015 -73.243 -4.91561 6.6104 2.9509 0 1.77636e-015 -34.4438 -1.209 3.89898 9.1045 -0.0439 -1.8651 -60.0512 -3.42607 11.5077 3.154 7.10543e-015 1.77636e-015 -67.3713 -4.24911 6.37109 2.9377 0 4.44089e-016 -39.2936 -1.55953 4.36652 8.0778 -0.4887 -3.8061 -68.9812 -4.40967 10.7093 3.6 0 3.55271e-015 -63.3809 -0.13416 4.30337 2.1142 1.42109e-014 1.77636e-015 -6.73466 -0.047534 0.807817 -4.57 10.9462 -2.628 3.48306 0.368799 -0.302416 -10.5928 -0.5248 -2.2321 68.46 7.57836 -3.42508 -27.8415 -7.10543e-015 0 2.75179e-005 3.19894e-006 19.3783 -28.3288 7.10543e-015 0.0001 27.2383 -16.9566 -2.42768 -8.0767 -0.4885 -3.806 22.1659 -0.513321 -3.59873 -3.6 -7.10543e-015 0.0001 23.5464 -0.578833 -2.77827 -2.1142 0 0 5.81525 -0.0357969 -0.704751 -9.1036 -0.0439 -1.8651 17.3941 -0.314712 -3.90006 -3.154 -1.77636e-015 -1.77636e-015 28.8731 -0.865348 -3.36051 -2.9377 -7.10543e-015 0 5.81525 -0.0357948 -0.704755 -9.5325 -5.32907e-015 8.88178e-016 11.3065 -0.128623 1.1093 -3.6982 -6.21725e-015 0 31.1874 -1.00618 -3.60418 -2.9509 7.10543e-015 -1.77636e-015 16.2883 -0.279255 -1.95321 -9.1083 -0.5168 2.2601 26.1997 -0.692458 1.5828 -3.6764 7.10543e-015 0 20.8268 -0.454684 -2.47373 -2.8831 7.10543e-015 8.88178e-016 5.81526 -0.0357937 -0.704753 -2.4648 -1.5727 2.6826 4.12801 0.72367 -7.93533 -3.2298 -1.8647 1.8647 -1.22424 9.80878 -26.1143 -2.6526 -1.5314 1.5314 -0.931718 -7.27745 -0.319849 8.2078 -6.7517 -1.5996 12.5541 -7.88313 11.4517 0 -44.3705 0.2846 4.45494 27.9137 2.86435 -3.55271e-015 -44.4279 -2.9822 -15.4466 -10.688 -0.917979 -3.55271e-015 -8.7287 10.7106 1.11125e-006 -0.47762 -3.45303e-005 -8.2078 -6.7517 -1.5996 -18.2418 2.49863 -17.9635 -3.55271e-015 -44.3705 0.2862 -0.937161 24.1653 5.07921 -3.55271e-015 -44.4277 -2.9838 14.2207 -17.0011 1.4891 -3.55271e-015 -8.7287 10.7106 6.91507e-007 -1.43781 1.91984e-006 
1.22809 98.536 1.77416 2.66719 -4.63958 12.1692 8.88178e-016 10.1816 0.1315 -0.199593 3.74733 -0.10905 0 10.0835 -1.0008 -0.115708 4.89891 -0.321552 0 9.1 -1.3734 -0.122286 4.89787 -0.336679 4.44089e-016 16.6717 -2.5162 -5.69169 5.03317 10.7098 1.77636e-015 9.6179 1.685 -16.9656 -5.09196 53.2805 -1.77636e-015 17.8152 2.585 1.39149e-015 2.43511e-015 1.59028e-015 3.0676 6.4095 9.2836 1.39149e-015 2.43511e-015 1.59028e-015 -3.0676 6.4095 9.2835 1.39149e-015 2.43511e-015 1.59028e-015 4.5704 10.946 -2.628 -11.2375 4.49755 -5.01902 10.5924 -0.5246 -2.2321 -51.8481 -11.1175 -6.80113 27.8415 -0.0001 0 -0.000221662 5.10037e-006 -31.988 28.3288 0 0 5.40838 -19.9516 40.9972 2.4661 -1.575 2.6824 -7.59167 18.9385 19.3481 3.2298 -1.8647 1.8647 1.13406 6.11079 22.8952 2.6526 -1.5315 1.5315 3.94718 3.59283 21.8109 9.1093 -0.5171 2.2601 -24.123 -0.601236 3.62208 3.6764 0 3.55271e-015 -24.898 -0.640606 2.90122 2.8831 -1.77636e-015 0 -5.85676 -0.0359545 0.702907 9.5334 7.10543e-015 3.55271e-015 -53.4072 -2.76049 10.5494 3.6982 -7.10543e-015 0 -72.9086 -4.87703 6.59862 2.9509 0 2.66454e-015 -33.1859 -1.12467 3.77306 9.1045 -0.0439 -1.8651 -58.963 -3.31154 11.5597 3.154 3.55271e-015 1.33227e-015 -66.4885 -4.15113 6.32925 2.9377 1.42109e-014 8.88178e-016 -37.3295 -1.41279 4.18072 8.0778 -0.4887 -3.8061 -67.9341 -4.29303 10.5697 3.6 0 -1.77636e-015 -61.4048 0.0104615 4.06727 2.1142 -1.42109e-014 -1.77636e-015 -6.3535 -0.04231 0.762293 -4.57 10.9462 -2.628 3.65687 0.363237 -0.392532 -10.5928 -0.5248 -2.2321 68.129 7.8586 -3.17231 -27.8415 0 -7.10543e-015 7.59014e-006 -2.50142e-006 19.5979 -28.3288 0 0.0001 27.42 -17.0308 -2.1352 -8.0767 -0.4885 -3.806 22.2117 -0.515426 -3.60129 -3.6 0 0.0001 23.5502 -0.579015 -2.7787 -2.1142 -7.10543e-015 0 5.81525 -0.0357969 -0.704751 -9.1036 -0.0439 -1.8651 17.4398 -0.316472 -3.87811 -3.154 -3.55271e-015 0 28.8962 -0.866713 -3.36299 -2.9377 1.42109e-014 0 5.81525 -0.0357948 -0.704755 -9.5325 3.55271e-015 0 11.3483 -0.129514 1.12455 -3.6982 -4.44089e-015 -8.88178e-016 31.2209 -1.00829 -3.60767 -2.9509 0 0 16.2789 -0.278936 -1.9521 -9.1083 -0.5168 2.2601 26.2209 -0.693484 1.59206 -3.6764 -7.10543e-015 2.22045e-016 20.8351 -0.455042 -2.47469 -2.8831 7.10543e-015 0 5.81526 -0.0357937 -0.704753 -2.4648 -1.5727 2.6826 4.08029 0.703825 -7.90256 -3.2298 -1.8647 1.8647 -1.24357 9.79087 -26.0251 -2.6526 -1.5314 1.5314 -0.930815 -7.27573 -0.325005 8.2078 -6.7517 -1.5996 12.7064 -7.92898 11.4795 3.55271e-015 -44.3705 0.2846 4.51753 27.8546 2.75219 -7.10543e-015 -44.4279 -2.9822 -15.715 -10.6148 -0.930401 0 -8.7287 10.7106 -2.17145e-006 -0.440224 -2.36738e-006 -8.2078 -6.7517 -1.5996 -18.1407 2.34943 -17.9427 -3.55271e-015 -44.3705 0.2862 -0.861162 24.4026 5.00998 -3.55271e-015 -44.4277 -2.9838 14.1054 -17.1253 1.49409 0 -8.7287 10.7106 -2.67886e-006 -1.43701 2.68587e-006 
1.08901 98.5295 1.7633 2.60329 -4.54807 12.2683 0 10.1816 0.1315 -0.342688 3.72916 -0.0858392 0 10.0835 -1.0008 -0.270801 4.88083 -0.285235 -4.44089e-016 9.1 -1.3734 -0.276636 4.87959 -0.302156 -2.22045e-016 16.6717 -2.5162 -5.54921 4.96123 10.7661 0 9.6179 1.685 -16.7897 -5.35407 53.6349 -1.77636e-015 17.8152 2.585 -4.47266e-016 3.08737e-015 3.18055e-015 3.0676 6.4095 9.2836 -4.47266e-016 3.08737e-015 3.18055e-015 -3.0676 6.4095 9.2835 -4.47266e-016 3.08737e-015 3.18055e-015 4.5704 10.946 -2.628 -11.2497 4.48568 -5.03655 10.5924 -0.5246 -2.2321 -52.4275 -9.1385 -5.33666 27.8415 -0.0001 0 -0.000193583 3.52057e-006 -32.8772 28.3288 0 7.10543e-015 3.31301 -18.0242 39.239 2.4661 -1.575 2.6824 -8.255 18.9133 19.4109 3.2298 -1.8647 1.8647 1.13518 6.07662 22.7091 2.6526 -1.5315 1.5315 3.94881 3.54026 21.6225 9.1093 -0.5171 2.2601 -24.7613 -0.633614 3.16512 3.6764 0 -1.77636e-015 -24.6 -0.625589 2.86864 2.8831 1.77636e-015 0 -5.11499 -0.0274315 0.614131 9.5334 -7.10543e-015 -3.55271e-015 -51.759 -2.6028 10.4073 3.6982 0 -5.55112e-016 -72.591 -4.84045 6.58722 2.9509 -1.42109e-014 1.77636e-015 -31.9894 -1.04704 3.6516 9.1045 -0.0439 -1.8651 -57.1986 -3.12943 11.5675 3.154 -3.55271e-015 -4.44089e-016 -65.5988 -4.05305 6.28555 2.9377 0 -3.55271e-015 -35.8979 -1.30991 4.04223 8.0778 -0.4887 -3.8061 -66.4044 -4.12144 10.6627 3.6 1.42109e-014 1.77636e-015 -59.4444 0.145762 3.82832 2.1142 1.42109e-014 0 -5.86756 -0.0360876 0.704202 -4.57 10.9462 -2.628 3.97 0.374285 -0.373385 -10.5928 -0.5248 -2.2321 67.6958 8.14762 -3.05905 -27.8415 0 0 1.58057e-005 1.14128e-005 19.6467 -28.3288 7.10543e-015 0.0001 27.5849 -17.1598 -1.81928 -8.0767 -0.4885 -3.806 22.237 -0.516584 -3.60616 -3.6 3.55271e-015 0.0001 23.5527 -0.579134 -2.77897 -2.1142 7.10543e-015 0 5.81525 -0.0357969 -0.704751 -9.1036 -0.0439 -1.8651 17.4688 -0.317559 -3.87303 -3.154 -1.77636e-015 0 28.9012 -0.867 -3.36351 -2.9377 7.10543e-015 0 5.81525 -0.0357948 -0.704755 -9.5325 1.77636e-015 0 11.3827 -0.130311 1.12581 -3.6982 -5.77316e-015 0 31.2348 -1.00917 -3.60911 -2.9509 1.42109e-014 0 16.2656 -0.278484 -1.95056 -9.1083 -0.5168 2.2601 26.2354 -0.694223 1.59444 -3.6764 -7.10543e-015 2.22045e-016 20.8322 -0.454913 -2.47435 -2.8831 7.10543e-015 -4.44089e-016 5.81526 -0.0357937 -0.704753 -2.4648 -1.5727 2.6826 4.04558 0.701117 -7.89436 -3.2298 -1.8647 1.8647 -1.25447 9.78077 -25.9748 -2.6526 -1.5314 1.5314 -0.931907 -7.27782 -0.318718 8.2078 -6.7517 -1.5996 12.8423 -8.01068 11.5062 0 -44.3705 0.2846 4.53883 27.6808 2.59255 3.55271e-015 -44.4279 -2.9822 -15.927 -10.4744 -0.928237 0 -8.7287 10.7106 1.76669e-006 -0.402224 -4.68186e-006 -8.2078 -6.7517 -1.5996 -18.0552 2.1995 -17.9631 0 -44.3705 0.2862 -0.744474 24.5637 4.8708 3.55271e-015 -44.4277 -2.9838 14.0106 -17.2112 1.49582 0 -8.7287 10.7106 4.65925e-006 -1.44082 -1.49084e-006 
0.946655 98.5287 1.75946 2.53899 -4.40997 12.4929 0 10.1816 0.1315 -0.485705 3.66379 -0.077929 4.44089e-016 10.0835 -1.0008 -0.428706 4.80996 -0.27797 2.22045e-016 9.1 -1.3734 -0.434312 4.80843 -0.296405 0 16.6717 -2.5162 -5.38103 4.91701 10.8074 0 9.6179 1.685 -16.4775 -5.44683 53.9355 -1.77636e-015 17.8152 2.585 -4.84538e-016 1.2921e-015 -1.59028e-015 3.0676 6.4095 9.2836 -4.84538e-016 1.2921e-015 -1.59028e-015 -3.0676 6.4095 9.2835 -4.84538e-016 1.2921e-015 -1.59028e-015 4.5704 10.946 -2.628 -11.2428 4.4639 -5.08403 10.5924 -0.5246 -2.2321 -52.5045 -6.75839 -4.01971 27.8415 -0.0001 0 -0.000188519 -8.30822e-006 -33.6857 28.3288 1.42109e-014 -7.10543e-015 1.35446 -15.8123 38.1408 2.4661 -1.575 2.6824 -8.83181 19.1545 19.7807 3.2298 -1.8647 1.8647 1.13636 6.04084 22.5143 2.6526 -1.5315 1.5315 3.95002 3.49921 21.4755 9.1093 -0.5171 2.2601 -24.8614 -0.638747 2.84415 3.6764 0 -1.77636e-015 -24.3444 -0.612844 2.84064 2.8831 3.55271e-015 -3.55271e-015 -4.5813 -0.0220095 0.550191 9.5334 -7.10543e-015 1.77636e-015 -50.0688 -2.44442 10.2903 3.6982 0 1.77636e-015 -72.364 -4.81435 6.57895 2.9509 1.42109e-014 0 -30.9739 -0.983177 3.54728 9.1045 -0.0439 -1.8651 -55.4307 -2.95037 11.5792 3.154 0 3.55271e-015 -64.8585 -3.97194 6.24805 2.9377 0 -3.55271e-015 -34.8302 -1.23545 3.9373 8.0778 -0.4887 -3.8061 -64.658 -3.92627 10.9251 3.6 0 1.77636e-015 -57.9395 0.244014 3.64189 2.1142 0 0 -5.4481 -0.0311173 0.654016 -4.57 10.9462 -2.628 4.29905 0.390434 -0.314861 -10.5928 -0.5248 -2.2321 67.2707 8.46539 -3.04023 -27.8415 -7.10543e-015 7.10543e-015 -1.34007e-005 -8.15532e-006 19.4711 -28.3288 7.10543e-015 0.0001 27.6427 -17.2322 -1.71916 -8.0767 -0.4885 -3.806 22.2461 -0.516991 -3.61263 -3.6 -3.55271e-015 0.0001 23.5535 -0.579175 -2.77906 -2.1142 -1.42109e-014 -3.55271e-015 5.81525 -0.0357969 -0.704751 -9.1036 -0.0439 -1.8651 17.4812 -0.317959 -3.88918 -3.154 -5.32907e-015 0 28.8984 -0.866841 -3.36321 -2.9377 0 3.55271e-015 5.81525 -0.0357948 -0.704755 -9.5325 0 0 11.4125 -0.13109 1.10944 -3.6982 -5.32907e-015 0 31.2329 -1.00905 -3.60892 -2.9509 0 0 16.2575 -0.278207 -1.94961 -9.1083 -0.5168 2.2601 26.2498 -0.695045 1.58816 -3.6764 0 4.44089e-016 20.8221 -0.454475 -2.4732 -2.8831 0 0 5.81526 -0.0357937 -0.704753 -2.4648 -1.5727 2.6826 4.02856 0.720061 -7.91735 -3.2298 -1.8647 1.8647 -1.25456 9.78071 -25.9745 -2.6526 -1.5314 1.5314 -0.93278 -7.27951 -0.313624 8.2078 -6.7517 -1.5996 12.9763 -8.1707 11.5275 3.55271e-015 -44.3705 0.2846 4.55886 27.4933 2.3496 -3.55271e-015 -44.4279 -2.9822 -16.0763 -10.3157 -0.917541 0 -8.7287 10.7106 -1.46914e-006 -0.384166 5.38719e-005 -8.2078 -6.7517 -1.5996 -17.8902 2.0761 -17.912 3.55271e-015 -44.3705 0.2862 -0.689893 24.6384 4.54252 0 -44.4277 -2.9838 14.054 -17.272 1.51083 3.55271e-015 -8.7287 10.7106 1.57221e-006 -1.42507 -2.12006e-006 
